# xmcd
#
# Track frame offsets:
#	150
#	19469
#	35633
#	58731
#	78993
#	97792
#	124496
#	146339
#	175640
#	193240
#
# Disc length: 2817 seconds
#
# Revision: 1
# Processed by: cddbd v1.5.2PL0 Copyright (c) Steve Scherf et al.
# Submitted via: audiograbber 1.83.01
#
DISCID=870aff0a
DTITLE=Canned Heat - Burnin'
DYEAR=1991
DGENRE=Blues
TTITLE0=Let's Work Together
TTITLE1=Gamblin' Woman
TTITLE2=Hucklebuck
TTITLE3=Sunnyland
TTITLE4=Rollin' And Tumbin'
TTITLE5=Niwit
TTITLE6=Gunstreet Girl
TTITLE7=One Way Out
TTITLE8=J.J. Jump
TTITLE9=Mercury Blues
EXTD=
EXTT0=
EXTT1=
EXTT2=
EXTT3=
EXTT4=
EXTT5=
EXTT6=
EXTT7=
EXTT8=
EXTT9=
PLAYORDER=
